<svg xmlns="http://www.w3.org/2000/svg" width="1080" height="1920" viewBox="0 0 1080 1920"><defs><linearGradient id="bg" x2="0" y2="1"><stop stop-color="#344E54"/><stop offset="1" stop-color="#708E86"/></linearGradient><filter id="blur"><feGaussianBlur stdDeviation="35"/></filter><radialGradient id="glow"><stop stop-color="#DFC786" stop-opacity=".5"/><stop offset="1" stop-color="#DFC786" stop-opacity="0"/></radialGradient></defs><rect width="1080" height="1920" fill="url(#bg)"/><g filter="url(#blur)" fill="#BDD0C4" opacity=".13"><ellipse cx="290" cy="240" rx="620" ry="120"/><ellipse cx="860" cy="440" rx="550" ry="100"/></g><path d="M0 1490Q300 1290 640 1460T1080 1410V1920H0Z" fill="#728F86" opacity=".5"/><g transform="translate(-30 1638)" fill="#496762"><path d="M0 -154L-40.04 -58.52H-18.48L-55.44 0H55.44L18.48 -58.52H40.04Z"/><rect x="-4" width="8" height="24"/></g><g transform="translate(45 1675)" fill="#496762"><path d="M0 -201L-52.260000000000005 -76.38H-24.119999999999997L-72.36 0H72.36L24.119999999999997 -76.38H52.260000000000005Z"/><rect x="-4" width="8" height="24"/></g><g transform="translate(120 1650)" fill="#496762"><path d="M0 -182L-47.32 -69.16H-21.84L-65.52 0H65.52L21.84 -69.16H47.32Z"/><rect x="-4" width="8" height="24"/></g><g transform="translate(195 1594)" fill="#496762"><path d="M0 -174L-45.24 -66.12H-20.88L-62.64 0H62.64L20.88 -66.12H45.24Z"/><rect x="-4" width="8" height="24"/></g><g transform="translate(270 1636)" fill="#496762"><path d="M0 -176L-45.760000000000005 -66.88H-21.119999999999997L-63.36 0H63.36L21.119999999999997 -66.88H45.760000000000005Z"/><rect x="-4" width="8" height="24"/></g><g transform="translate(345 1642)" fill="#496762"><path d="M0 -209L-54.34 -79.42H-25.08L-75.24 0H75.24L25.08 -79.42H54.34Z"/><rect x="-4" width="8" height="24"/></g><g transform="translate(420 1671)" fill="#496762"><path d="M0 -164L-42.64 -62.32H-19.68L-59.04 0H59.04L19.68 -62.32H42.64Z"/><rect x="-4" width="8" height="24"/></g><g transform="translate(495 1615)" fill="#496762"><path d="M0 -116L-30.16 -44.08H-13.92L-41.76 0H41.76L13.92 -44.08H30.16Z"/><rect x="-4" width="8" height="24"/></g><g transform="translate(570 1600)" fill="#496762"><path d="M0 -171L-44.46 -64.98H-20.52L-61.559999999999995 0H61.559999999999995L20.52 -64.98H44.46Z"/><rect x="-4" width="8" height="24"/></g><g transform="translate(645 1630)" fill="#496762"><path d="M0 -122L-31.720000000000002 -46.36H-14.639999999999999L-43.92 0H43.92L14.639999999999999 -46.36H31.720000000000002Z"/><rect x="-4" width="8" height="24"/></g><g transform="translate(720 1580)" fill="#496762"><path d="M0 -149L-38.74 -56.62H-17.88L-53.64 0H53.64L17.88 -56.62H38.74Z"/><rect x="-4" width="8" height="24"/></g><g transform="translate(795 1648)" fill="#496762"><path d="M0 -123L-31.98 -46.74H-14.76L-44.28 0H44.28L14.76 -46.74H31.98Z"/><rect x="-4" width="8" height="24"/></g><g transform="translate(870 1610)" fill="#496762"><path d="M0 -128L-33.28 -48.64H-15.36L-46.08 0H46.08L15.36 -48.64H33.28Z"/><rect x="-4" width="8" height="24"/></g><g transform="translate(945 1633)" fill="#496762"><path d="M0 -123L-31.98 -46.74H-14.76L-44.28 0H44.28L14.76 -46.74H31.98Z"/><rect x="-4" width="8" height="24"/></g><g transform="translate(1020 1597)" fill="#496762"><path d="M0 -142L-36.92 -53.96H-17.04L-51.12 0H51.12L17.04 -53.96H36.92Z"/><rect x="-4" width="8" height="24"/></g><g transform="translate(1095 1647)" fill="#496762"><path d="M0 -149L-38.74 -56.62H-17.88L-53.64 0H53.64L17.88 -56.62H38.74Z"/><rect x="-4" width="8" height="24"/></g><path d="M0 1700Q320 1580 630 1700T1080 1660V1920H0Z" fill="#354F49"/><path d="M0 1830Q420 1720 1080 1820V1920H0Z" fill="#789C99" opacity=".6"/><g fill="none" stroke="#CEDDD4" stroke-width="2" opacity=".14"><path d="M663 1041l-12 46"/><path d="M17 542l-12 46"/><path d="M317 1683l-12 46"/><path d="M408 539l-12 46"/><path d="M177 408l-12 46"/><path d="M1049 112l-12 46"/><path d="M396 1033l-12 46"/><path d="M49 1664l-12 46"/><path d="M1078 748l-12 46"/><path d="M936 1557l-12 46"/><path d="M266 715l-12 46"/><path d="M341 75l-12 46"/><path d="M712 1242l-12 46"/><path d="M62 795l-12 46"/><path d="M388 304l-12 46"/><path d="M658 1819l-12 46"/><path d="M895 913l-12 46"/><path d="M199 1875l-12 46"/><path d="M42 511l-12 46"/><path d="M302 319l-12 46"/><path d="M505 1654l-12 46"/><path d="M1048 726l-12 46"/><path d="M610 1184l-12 46"/><path d="M35 514l-12 46"/><path d="M719 426l-12 46"/><path d="M804 59l-12 46"/><path d="M141 199l-12 46"/><path d="M510 201l-12 46"/><path d="M605 284l-12 46"/><path d="M851 978l-12 46"/><path d="M1011 1579l-12 46"/><path d="M733 604l-12 46"/><path d="M194 419l-12 46"/><path d="M620 1272l-12 46"/><path d="M442 328l-12 46"/><path d="M903 975l-12 46"/><path d="M657 533l-12 46"/><path d="M194 1377l-12 46"/><path d="M528 1439l-12 46"/><path d="M50 71l-12 46"/><path d="M386 453l-12 46"/><path d="M966 667l-12 46"/><path d="M1032 1675l-12 46"/><path d="M1034 1775l-12 46"/><path d="M629 499l-12 46"/><path d="M552 1789l-12 46"/><path d="M291 109l-12 46"/><path d="M1023 1101l-12 46"/><path d="M957 488l-12 46"/><path d="M263 1869l-12 46"/><path d="M187 433l-12 46"/><path d="M902 570l-12 46"/><path d="M956 870l-12 46"/><path d="M529 638l-12 46"/><path d="M769 1095l-12 46"/><path d="M652 1276l-12 46"/><path d="M994 1127l-12 46"/><path d="M1008 12l-12 46"/><path d="M835 442l-12 46"/><path d="M929 620l-12 46"/><path d="M1026 1376l-12 46"/><path d="M595 1402l-12 46"/><path d="M27 102l-12 46"/><path d="M865 870l-12 46"/><path d="M131 661l-12 46"/><path d="M508 699l-12 46"/><path d="M310 1863l-12 46"/><path d="M915 1389l-12 46"/><path d="M705 1214l-12 46"/><path d="M976 101l-12 46"/><path d="M590 780l-12 46"/><path d="M209 1162l-12 46"/><path d="M1095 1503l-12 46"/><path d="M581 629l-12 46"/><path d="M1085 1570l-12 46"/><path d="M633 1472l-12 46"/><path d="M45 1699l-12 46"/><path d="M550 772l-12 46"/><path d="M657 836l-12 46"/><path d="M517 745l-12 46"/><path d="M215 1157l-12 46"/><path d="M921 1241l-12 46"/><path d="M961 152l-12 46"/><path d="M520 1019l-12 46"/><path d="M332 986l-12 46"/><path d="M894 808l-12 46"/><path d="M374 919l-12 46"/><path d="M1021 923l-12 46"/><path d="M260 1259l-12 46"/><path d="M262 126l-12 46"/><path d="M158 1094l-12 46"/><path d="M925 485l-12 46"/><path d="M298 1330l-12 46"/><path d="M347 388l-12 46"/><path d="M928 1536l-12 46"/><path d="M29 740l-12 46"/><path d="M293 22l-12 46"/><path d="M987 1840l-12 46"/><path d="M287 264l-12 46"/><path d="M316 1319l-12 46"/><path d="M18 983l-12 46"/><path d="M1031 9l-12 46"/><path d="M56 115l-12 46"/><path d="M759 1784l-12 46"/><path d="M816 221l-12 46"/><path d="M559 1787l-12 46"/><path d="M537 1145l-12 46"/><path d="M669 1657l-12 46"/><path d="M37 1452l-12 46"/><path d="M527 742l-12 46"/><path d="M571 385l-12 46"/><path d="M1096 920l-12 46"/><path d="M596 1721l-12 46"/><path d="M131 121l-12 46"/><path d="M584 790l-12 46"/><path d="M601 1570l-12 46"/><path d="M110 1167l-12 46"/><path d="M529 1667l-12 46"/><path d="M470 695l-12 46"/><path d="M580 884l-12 46"/><path d="M656 627l-12 46"/><path d="M422 681l-12 46"/><path d="M1006 1306l-12 46"/><path d="M138 540l-12 46"/><path d="M488 1071l-12 46"/></g><g fill="none" stroke="#B0CCC3" opacity=".35"><ellipse cx="260" cy="1840" rx="72" ry="9"/><ellipse cx="800" cy="1880" rx="100" ry="12"/><ellipse cx="650" cy="1815" rx="35" ry="5"/></g></svg>